<mxfile host="65bd71144e">
    <diagram id="bloC61YL68mTybGjdmF9" name="SQL Side Processes">
        <mxGraphModel dx="912" dy="578" grid="1" gridSize="10" guides="1" tooltips="1" connect="1" arrows="1" fold="1" page="1" pageScale="1" pageWidth="850" pageHeight="1100" math="0" shadow="0">
            <root>
                <mxCell id="0"/>
                <mxCell id="1" parent="0"/>
                <mxCell id="14" value="" style="rounded=0;whiteSpace=wrap;html=1;strokeWidth=1;fontSize=16;" parent="1" vertex="1">
                    <mxGeometry x="20" y="20" width="810" height="240" as="geometry"/>
                </mxCell>
                <mxCell id="3" value="&lt;b&gt;&lt;font style=&quot;font-size: 36px;&quot;&gt;SQL08&lt;/font&gt;&lt;/b&gt;" style="rounded=0;whiteSpace=wrap;html=1;align=left;" parent="1" vertex="1">
                    <mxGeometry x="70" y="20" width="760" height="50" as="geometry"/>
                </mxCell>
                <mxCell id="5" value="" style="shape=image;verticalLabelPosition=bottom;labelBackgroundColor=default;verticalAlign=top;aspect=fixed;imageAspect=0;image=data:image/png,iVBORw0KGgoAAAANSUhEUgAAAPoAAAD6CAIAAAAHjs1qAAAAAXNSR0IArs4c6QAAAARnQU1BAACxjwv8YQUAAAAJcEhZcwAAFiUAABYlAUlSJPAAAAfISURBVHhe7d1ZdhtHDEZhK0tJtpNhrRm2k2zFruPSaXfIZrOHAgrAf7+XKHkj6jZckhj64+vXr18ADT99/hMQQO4QQu4QQu4QQu4QQu4QQu4QQu4QQu4QQu4QQu4QQu4QQu4Qwjsix/v4+Pj8aihO6j5yP8Go47E40B3kviFF1qdwyh25F4z7IMGjV8xdtu99CiVI5O7Zt+k8y7yQWcrmblFGilnJvvAjquU+6rAZy6bsY6mQ+/2zLBb3EZpDS5z75QMTjPsIhXnmy/3aqZD4KVWHnCn3s2dA4kNUGnuC3E+Nm8RNZT+L0LkfHy6VO0t6NEFzPzhNKp8u10mFy/3I+Kg8oBQHFyh3Qq/h7TlOPMQQuUceEK6Jeabzc9+fC6GnFu1wZ+ZO6CLiHPS03HdGQOglRTjxCbkTurK5p+/9wRu0Lm7nlHfaGMV1u796PYQuaEoMftud1rH26txNd7zTdt98DYSOxrMNj+1O69ixWYLRjjfPndbxllvxEz4SldbxzKcK29yfH1BaxyvPbQxf8Ia50zrOsi5+wmUGmMUqd1Y7rjFd8E7bndZxnF0tXGYgxCT34d9QQ9yoojy2OzcZnGXUDJcZCCF3CCF3CCF3CCF3CPHInZ9L4iyjZtjuEELuEOKUO/cZHGdXi992p3hMx2UGsZiuRdfcWfDYZ12I93aneLzi0MaEywzF45lPFXPu7hSPNbcepn2rSvHoPEuYlntD8XBuYGbuTXu1RK9pytFPzr2jeDWzTjxE7s33R53o65t70FFy7+bOAqYiHG6s3LsIc8FAcQ40Yu5dnBnhsmiHGDf3Ltq8cFDMg4ueexdzdtgU+bBM/ioy61fLx5IFlOLQU+a+oPvpcp117twXdO/P+ZTJfQPdm8p+stVyXyP9ISqdZuXc10j/lKonqJL7GulvUjg1xdwfyNYveEzkvqHkA8ChNOR+QorHgOHvIPfBrB8J2dmSO4QMCTXHW8SAIcgdQsgdQsgdQsgdQsgdQsgdQsgdQsgdQsgdQsgdQsgdQsgdQsgdQsgdQsgdQsgdQsgdQsgdQsgdQsgdQsgdQsgdQsgdQsgdQsgdQsgdQsgdQsgdQsgdQvjAa/zw85+/fn51wH9//PP5lQs+3x23nIr7ILtngNxxTj/rX/76rf+rtbHpkzvec05805DuyR17IoT+4E735I4NASt/cC16csf/xA997Wz05I5PuUJfOx49uSNx6GtHoid3aTVCX9uPfkiovIkgpXqtNxa/9nrAdk+mZOgPNtc8212OQuuN3Zpnu6ch0vraes0PCZXcExAMfbEUPyRULjPRKbfejL3YkHto4q13A4sn97hofTGqeHIPitYfDBkFuUdE65vuD4Tcw6H1HTfHQu6x0Ppbd4ZD7oHQ+kGXR0TuUdD6KdcGRe4h0PoFF8ZF7kjsbPHkPh+r3Q25T0brN50aHbnPROtDHB8guUMIuU/Dah/o4BjJfQ5aH+7IMPm/mebwzP3f3//+/Oq7ws/Ywyt9xnafYO5qf9tEXm9HSu7Fbcbd/mPh6HeQu7c4t/aS0e8PltzVSW16cncV9gcylaLfGS+544fym57c/YRd7Q8KFP9qyOSODVXXPLnjpdTRby54cneS5SbzrNKmJ3ccUiN6cveQd7U/yBX988DJHafl3fTkjosyFk/u5srcZJ7FX/MPYyd33JXobkPuGCNF9OSOkYJHT+62Cl/cd4SKfj18coeVgGue3GEo2t2G3GEuTvTkDicRoid3uJobPbljAufolx/OkLshzZ9CHue/6ckdk3kWT+6Yz23NkzuicIie3BGLafTkjoiMoid3xDW8eHJHaGOLJ3cIIXcIIXeENvZ30uSOuIa//4LcEVEL3eK9RuSOWIxC78gdUZiG3pG7of7XKdv9SrwM69CXIyB3TGa90dfIHdM43F4ekDsm8A+9I3e4mhV6R+5wMjf0jtxt8cOZZm7o6+GTO2xN3+hr5A4rEW4vD8gd4wUMvSN3c1LX92ihP4zdJPf+6VmQEnajr7HdcVeK0Dty91D1PhM89OeBW+XOfaa8LBt9je2O0xLdXh4Y5s6CX6txn0kU+uaobbc7xZeRd6OvcZnxk3TBZwz91ZDNc2fB51Vjo695bHeKXyRa8HlD3xmv02WG4hOpt9QXfnd3iu8iL/gCoe8P1vVbVYoPq/BGX3PNvaH4JtSCrxT625F6595QfBAiG33tY2J8fcnJ6pN3CO5555Ws/MiflhO2+0J8zc+60si23szc7gvZNe+24MvLlHunGT3F33f8T8hAuXeC0VP8HadugzPv7puiPX6oJNx2X0iteRb8NWe/0Y+b+0Kke4o/62zrTYLcO4XoKf64C603aXJf1O6e4o+41nqTL/dF1e4pft/l1pvEuS/qdU/xr9xpvamQ+6JS9xT/7GbrTanc1wqkT/Fr91tvyua+ljd9iu+GtN5I5L6WLn2KH9V6I5f7s/gPgHLxA1tvyH1DwAdAs/ixrTfkfsL0x0An+uGhd+Q+mOkjsRxW7eKNWm/IPbF60duF3oV7vzuOs47DmcPLYbtXkH3Nuz235F5Hxuid/4Ai92qyRD/lJkbuNUWOfuK3HOReWbToJ4bekbuEud1Pr3xB7lo8u49T+YLcdVmkHzDxNXLHD2cfgOBxPyN3COFNBJDx5cs3Uj2BpRC4Hw4AAAAASUVORK5CYII=;strokeWidth=1;imageBorder=default;" parent="1" vertex="1">
                    <mxGeometry x="20" y="20" width="50" height="50" as="geometry"/>
                </mxCell>
                <mxCell id="8" value="" style="rounded=0;whiteSpace=wrap;html=1;strokeWidth=1;fontSize=36;" parent="1" vertex="1">
                    <mxGeometry x="30" y="80" width="340" height="170" as="geometry"/>
                </mxCell>
                <mxCell id="9" value="" style="rounded=0;whiteSpace=wrap;html=1;strokeWidth=1;fontSize=36;" parent="1" vertex="1">
                    <mxGeometry x="500" y="80" width="320" height="170" as="geometry"/>
                </mxCell>
                <mxCell id="10" value="" style="shape=image;verticalLabelPosition=bottom;labelBackgroundColor=default;verticalAlign=top;aspect=fixed;imageAspect=0;image=data:image/png,iVBORw0KGgoAAAANSUhEUgAAAPoAAAD6CAIAAAAHjs1qAAAAAXNSR0IArs4c6QAAAARnQU1BAACxjwv8YQUAAAAJcEhZcwAAFiUAABYlAUlSJPAAAAeQSURBVHhe7dPbkuK6AgTR/f8/PccRJIQ5DdMw5YvKyvWIZFuX5L8/0jTMXRMxd03E3DURc9dEzF0TMXdNxNw1EXPXRMxdEzF3TcTcNRFz10TMXRMx9+39tw/eroCH+AW6Gxtr1SuezguEcyFsbHoexAXj/hD7n8mUe9YrnM6lzbHJA/HJffCNQ/DJa7ls7lzapnj12Fjrpnh1v6vlzv3EeN1VsKsYr6t1hXvlKgK8aCbsPMCLqhTfNKf+PZ7XM07nezzfoO/uOeMv8bA+w6l9iYcHVvXX/BKPKcNpfozHhtTwj/wGz2gfnPJneGYkY/8XP8YDOgrn/gEeGMOgoXBUv2G2zsNN/IbZZxuuGI7nr5iqkXA3f8XU8wyUDkfyV0zVwLiq95h3hiEC4hjeY556cHPvMe9Y55fE7t9gkjpxi28w6UBn9sSm32CS+nGjbzDpEKdVxV5fYYauhdt9hRn7O6EttvgKM3Rd3PQrzNjT0YWxs1eYoavjvl9hxm4OjYw9/cCwZsLd/8DwPo5Ljd38wLDmQwE/MLyDg2pjH88Y09yo4RljWzuiOXbwjDHpwEJ2z461P2NMuqOMZ4xt54TcGZCe0ccKA9vZNz5WvcKA9AqVrDCwkR37Y70rDEjv0coKA1swd42FVlYY2MJeCbLSFQak31DMCgOxg3LnV+kzdHPHrzFz14jo5o5fY7uEyBpXGJA+QzcrDGSOyJ1fpW9Qzx2/Zsxdg6KeO37NmLsGRT13/Joxdw2Keu74NWPuGhT13PFrxtw1KOq549fMEbkvGJA+QzcrDGTMXSOimxUGMuauEdHNCgOZg3JfMCb9hmKeMZY5LvcFw9JfkcszxjLmrrHQyg8MZw7NfcEM6RUqeYUZmaNzXzBJekYfbzApc0LuC+ZJd5TxHvMy5+S+YKp0YDCn5b5gtuZGDb9hdubM3Bc8oFnRwQd4IHNy7jc8pplw9x/jscwQuS94UnPg1r/Bk5lRcr/heV0XN/09ns+MlfsNb9G1cLv/irdkRsz9hnepHzea4V2ZcXO/4Y3qxC1ugTdmRs/9hveqBze3Hd6b6cj9hrdrbNzW1nh7pin3Bz6jkXA3u+EzmcrcH/iezsNN7I/vZbpzf+DDOhBHfxS+mrlI7g+sQPvglM/ACjJXy32N1SjDaZ6N1WSunPsaK9NnOLWRsLLMLLmvsUo943RGxSozM+b+f1j0fNh/CRadMfcX2Ma1sLdabCNj7l9ge2NjrZfD9jLmvjGOYDd8Zj7sP2Pu6kBbGXNXB9rKmLs60FbG3NWBtjLmrg60lTF3daCtjLmrA21lzF0daCtj7upAWxlzVwfaypi7OtBWxtzVgbYy5q4OtJUxd3WgrYy5qwNtZcxdHWgrY+7qQFsZc1cH2sqYuzrQVsbc1YG2MuauDrSVMXd1oK2MuasDbWXMXR1oK2Pu6kBbGXNXB9rKmLs60FbG3NWBtjLmrg60lTF3daCtjLmrA21lzF0daCtj7upAWxlzVwfaypi7OtBWxtzVgbYy5q4OtJUxd3WgrYy5qwNtZcxdHWgrY+7qQFsZc1cH2sqYuzrQVsbc1YG2MuauDrSVMXd1oK2MuasDbWXMXR1oK2Pu6kBbGXNXB9rKmLs60FbG3NWBtjLmrg60lTF3daCtjLmrA21lzF0daCtj7upAWxlzVwfaypi7OtBWxtzVgbYy5q4OtJUxd3WgrYy5qwNtZcxdHWgrY+7qQFsZc1cH2sqYuzrQVsbc1YG2MuauDrSVMXd1oK2MuasDbWXMXR1oK2Pu6kBbGXNXB9rKmLs60FbG3NWBtjLmrg60lTF3daCtjLmrA21lzF0daCtj7upAWxlzVwfaypi7OtBWxtzVgbYy5q4OtJUxd3WgrYy5qwNtZcxdHWgrY+7qQFsZc1cH2sqYuzrQVsbc1YG2MuauDrSVMXd1oK2MuasDbWXMXR1oK2Pu6kBbGXNXB9rKmLs60FbG3NWBtjLmrg60lTF3daCtjLmrA21lzF0daCtj7upAWxlzVwfaypi7OtBWxtzVgbYy5q4OtJUxd3WgrYy5qwNtZcxdHWgrY+7qQFsZc1cH2sqYuzrQVmaX3BesUdoCVcXMXQWoKmbuKkBVsb1yX7BSKUNPWzB3jY6etrBj7gvWK/0rStrIvrkvWLX0PRrajrlrXDS0nd1zX7B26RvUs6kjcl+wA+kzdLO1g3JfsA/pNxSzg+NyX7Ab6T1a2cehuS/Yk/QKlezm6NwX7Ex6Rh97OiH3BfuT7ihjZ+fkfsNGNTdqOMSZuS/YsWZFB0c5Ofcbtq6ZcPfHGiL3G45BV8d9n2Gg3G84El0U13yS4XJfcDC6Fm73VCPmfsMhqR83OoBxc3/gzNSG+xtJQe43HKEacGfjqcn9gRPVeLihgfXl/sAZ62zcR4Pi3B84dR2L069yhdwfuAftibPudKnc17gcbYEz7XfZ3Ne4NH2Ds7uWKXJf4zL1Cmd0XdPl/hNXPR/2PxNzf4EcroW9zc1T+ALhjI216hVPZ2NEtw++oX/lCWoi5q6JmLsmYu6aiLlrIuauiZi7JmLumoi5ayLmromYuyZi7pqIuWsaf/78D1jXGA95li2wAAAAAElFTkSuQmCC;imageBorder=default;" parent="1" vertex="1">
                    <mxGeometry x="30" y="80" width="50" height="50" as="geometry"/>
                </mxCell>
                <mxCell id="11" value="SysproCompany100" style="rounded=0;whiteSpace=wrap;html=1;strokeWidth=1;fontSize=16;align=left;fontStyle=1" parent="1" vertex="1">
                    <mxGeometry x="80" y="80" width="290" height="50" as="geometry"/>
                </mxCell>
                <mxCell id="12" value="" style="shape=image;verticalLabelPosition=bottom;labelBackgroundColor=default;verticalAlign=top;aspect=fixed;imageAspect=0;image=data:image/png,iVBORw0KGgoAAAANSUhEUgAAAPoAAAD6CAIAAAAHjs1qAAAAAXNSR0IArs4c6QAAAARnQU1BAACxjwv8YQUAAAAJcEhZcwAAFiUAABYlAUlSJPAAAAeQSURBVHhe7dPbkuK6AgTR/f8/PccRJIQ5DdMw5YvKyvWIZFuX5L8/0jTMXRMxd03E3DURc9dEzF0TMXdNxNw1EXPXRMxdEzF3TcTcNRFz10TMXRMx9+39tw/eroCH+AW6Gxtr1SuezguEcyFsbHoexAXj/hD7n8mUe9YrnM6lzbHJA/HJffCNQ/DJa7ls7lzapnj12Fjrpnh1v6vlzv3EeN1VsKsYr6t1hXvlKgK8aCbsPMCLqhTfNKf+PZ7XM07nezzfoO/uOeMv8bA+w6l9iYcHVvXX/BKPKcNpfozHhtTwj/wGz2gfnPJneGYkY/8XP8YDOgrn/gEeGMOgoXBUv2G2zsNN/IbZZxuuGI7nr5iqkXA3f8XU8wyUDkfyV0zVwLiq95h3hiEC4hjeY556cHPvMe9Y55fE7t9gkjpxi28w6UBn9sSm32CS+nGjbzDpEKdVxV5fYYauhdt9hRn7O6EttvgKM3Rd3PQrzNjT0YWxs1eYoavjvl9hxm4OjYw9/cCwZsLd/8DwPo5Ljd38wLDmQwE/MLyDg2pjH88Y09yo4RljWzuiOXbwjDHpwEJ2z461P2NMuqOMZ4xt54TcGZCe0ccKA9vZNz5WvcKA9AqVrDCwkR37Y70rDEjv0coKA1swd42FVlYY2MJeCbLSFQak31DMCgOxg3LnV+kzdHPHrzFz14jo5o5fY7uEyBpXGJA+QzcrDGSOyJ1fpW9Qzx2/Zsxdg6KeO37NmLsGRT13/Joxdw2Keu74NWPuGhT13PFrxtw1KOq549fMEbkvGJA+QzcrDGTMXSOimxUGMuauEdHNCgOZg3JfMCb9hmKeMZY5LvcFw9JfkcszxjLmrrHQyg8MZw7NfcEM6RUqeYUZmaNzXzBJekYfbzApc0LuC+ZJd5TxHvMy5+S+YKp0YDCn5b5gtuZGDb9hdubM3Bc8oFnRwQd4IHNy7jc8pplw9x/jscwQuS94UnPg1r/Bk5lRcr/heV0XN/09ns+MlfsNb9G1cLv/irdkRsz9hnepHzea4V2ZcXO/4Y3qxC1ugTdmRs/9hveqBze3Hd6b6cj9hrdrbNzW1nh7pin3Bz6jkXA3u+EzmcrcH/iezsNN7I/vZbpzf+DDOhBHfxS+mrlI7g+sQPvglM/ACjJXy32N1SjDaZ6N1WSunPsaK9NnOLWRsLLMLLmvsUo943RGxSozM+b+f1j0fNh/CRadMfcX2Ma1sLdabCNj7l9ge2NjrZfD9jLmvjGOYDd8Zj7sP2Pu6kBbGXNXB9rKmLs60FbG3NWBtjLmrg60lTF3daCtjLmrA21lzF0daCtj7upAWxlzVwfaypi7OtBWxtzVgbYy5q4OtJUxd3WgrYy5qwNtZcxdHWgrY+7qQFsZc1cH2sqYuzrQVsbc1YG2MuauDrSVMXd1oK2MuasDbWXMXR1oK2Pu6kBbGXNXB9rKmLs60FbG3NWBtjLmrg60lTF3daCtjLmrA21lzF0daCtj7upAWxlzVwfaypi7OtBWxtzVgbYy5q4OtJUxd3WgrYy5qwNtZcxdHWgrY+7qQFsZc1cH2sqYuzrQVsbc1YG2MuauDrSVMXd1oK2MuasDbWXMXR1oK2Pu6kBbGXNXB9rKmLs60FbG3NWBtjLmrg60lTF3daCtjLmrA21lzF0daCtj7upAWxlzVwfaypi7OtBWxtzVgbYy5q4OtJUxd3WgrYy5qwNtZcxdHWgrY+7qQFsZc1cH2sqYuzrQVsbc1YG2MuauDrSVMXd1oK2MuasDbWXMXR1oK2Pu6kBbGXNXB9rKmLs60FbG3NWBtjLmrg60lTF3daCtjLmrA21lzF0daCtj7upAWxlzVwfaypi7OtBWxtzVgbYy5q4OtJUxd3WgrYy5qwNtZcxdHWgrY+7qQFsZc1cH2sqYuzrQVsbc1YG2MuauDrSVMXd1oK2MuasDbWXMXR1oK2Pu6kBbGXNXB9rKmLs60FbG3NWBtjLmrg60lTF3daCtjLmrA21lzF0daCtj7upAWxlzVwfaypi7OtBWxtzVgbYy5q4OtJUxd3WgrYy5qwNtZcxdHWgrY+7qQFsZc1cH2sqYuzrQVmaX3BesUdoCVcXMXQWoKmbuKkBVsb1yX7BSKUNPWzB3jY6etrBj7gvWK/0rStrIvrkvWLX0PRrajrlrXDS0nd1zX7B26RvUs6kjcl+wA+kzdLO1g3JfsA/pNxSzg+NyX7Ab6T1a2cehuS/Yk/QKlezm6NwX7Ex6Rh97OiH3BfuT7ihjZ+fkfsNGNTdqOMSZuS/YsWZFB0c5Ofcbtq6ZcPfHGiL3G45BV8d9n2Gg3G84El0U13yS4XJfcDC6Fm73VCPmfsMhqR83OoBxc3/gzNSG+xtJQe43HKEacGfjqcn9gRPVeLihgfXl/sAZ62zcR4Pi3B84dR2L069yhdwfuAftibPudKnc17gcbYEz7XfZ3Ne4NH2Ds7uWKXJf4zL1Cmd0XdPl/hNXPR/2PxNzf4EcroW9zc1T+ALhjI216hVPZ2NEtw++oX/lCWoi5q6JmLsmYu6aiLlrIuauiZi7JmLumoi5ayLmromYuyZi7pqIuWsaf/78D1jXGA95li2wAAAAAElFTkSuQmCC;imageBorder=default;" parent="1" vertex="1">
                    <mxGeometry x="500" y="80" width="50" height="50" as="geometry"/>
                </mxCell>
                <mxCell id="13" value="SysproDocument" style="rounded=0;whiteSpace=wrap;html=1;strokeWidth=1;fontSize=16;align=left;fontStyle=1" parent="1" vertex="1">
                    <mxGeometry x="550" y="80" width="270" height="50" as="geometry"/>
                </mxCell>
                <mxCell id="15" value="This trigger inserts inot the SorMaster_Process_Staged table to stage Sales Orders to go through the Dispatch freight and service charges process." style="rounded=0;whiteSpace=wrap;html=1;strokeWidth=1;fontSize=12;align=left;verticalAlign=top;" parent="1" vertex="1">
                    <mxGeometry x="40" y="180" width="320" height="60" as="geometry"/>
                </mxCell>
                <mxCell id="23" style="edgeStyle=none;html=1;entryX=0;entryY=0.5;entryDx=0;entryDy=0;fontSize=12;" parent="1" source="16" target="20" edge="1">
                    <mxGeometry relative="1" as="geometry"/>
                </mxCell>
                <mxCell id="16" value="&amp;nbsp;[trg_AdmSignSignatureLog_625100_AfterUpdate] on [dbo].[AdmSignatureLog] after update" style="rounded=0;whiteSpace=wrap;html=1;strokeWidth=1;fontSize=12;align=left;fontStyle=0" parent="1" vertex="1">
                    <mxGeometry x="80" y="140" width="280" height="40" as="geometry"/>
                </mxCell>
                <mxCell id="17" value="" style="shape=image;verticalLabelPosition=bottom;labelBackgroundColor=default;verticalAlign=top;aspect=fixed;imageAspect=0;image=data:image/png,iVBORw0KGgoAAAANSUhEUgAAAPoAAAD6CAYAAACI7Fo9AAAAAXNSR0IArs4c6QAAAARnQU1BAACxjwv8YQUAAAAJcEhZcwAAFiUAABYlAUlSJPAAAAWmSURBVHhe7d3rTuNIFIVRMu//zhmiCQPiGsd21amz15JanV/dCOVju4wFl+urF6C1f+5/A40JHQIIHQIIHQIIHQIIHQIIHQIIHQIIHQIIHQIIHQIIHQIIHQIIHQIIHQIIHQIIHQLs+gkzl8vl/go4254fBmXRIYDQIYDQIYDQIYDQIYDQIYDQIYDQIYDQIYDQIYDQIYDQIYDQIYDQIYDQIYDQIYDQIYDQIYDQIYDQIYDQIYDQIYDQIYDQIYDQIYDQIYDQIYDQIYDQIYDQIYDQIYDQIYDQIYDQIYDQIYDQIYDQIYDQIYDQIYDQIYDQIYDQIYDQIYDQIYDQIYDQIYDQIYDQIYDQIcDl+ur+erPL5XJ/9W7HPwfcHd2WRYcAQocAQocAQocAQocAQocAQocAQocAQocAQocAQocAQocAQocAQocAQocAQocAQocAQocAQocAQocAQocAQocAQocAQocAQocAQocAQocAQl/E7Xdxvf2BrYS+gM9xC56thL4wwfMooRf3SMiC5y9CL2xrvILnJ0Ivak+wguczoTcmeN4IvaCj4xQ8Qi/mzCAFn0vogQSfR+iFjI5P8DmEXsTM4ATfn9D5n+D7EnoB1eISfD9Cn6xyUGLvQ+j8yrr3IPSJVgpI8GsT+iSrRiP4NQmdpwh+LUKfoFMggl+D0AfrGoXgaxM6hxJ8TUIfKCkAwdci9EFS3/SCr0HoDCH4uYQ+gDf4O8HPIfSTeVN/z+dlLKFDAKGfyGpRhdBPIvLfXa/X+ytGEDpD3QIX+XhCP4E1/57A5xH6wUT+lRWfT+icRuB1CP1A1vydwGsR+kFE/h8rXpPQOYTAaxP6AdLXXOD1CX2n5Mit+DqEzmYCX4/Q2UTgaxL6TilvfCu+NqEfoHMEAu9B6AfqFIXAexH6CVYPROD9CP0kK8ZixfsS+klW+v66wPsT+glWi5z+hH6wVSK34lmEfqAVIhd4JqEfZJXIyST0A1SP3Ioj9J0qRy5w3gh9h+qRwxuhP6n65foK9wwYR+hPWCWi28cpeG6EHkDwCH2jlYMRey6hb9AhFOueSegP6haH4LMI/QGdgxB7BqH/QQh0IPRfiJwuhP6DlMg9QZdB6N9IiNxz8FmE/klK5GQR+gfdI7fiuYR+lxA5uYT+qnPkVpyb+NC7Ri5wPooOvXPk8FFs6B0jt+L8JDL0rpHDT+JC7xa5FecRUaF3ilzgbBF9M25VAmcroS/EivOsqNBXjkTg7BG36Kut4mofLzXFXrpXD0jgHCn+jF4xKIFzNDfj7ioEX/GLDj0I/YOZ32cXOGcS+t2syK04Iwj91YzIBc5IQp9A4IwWH/rINbfizBId+uhL9tv/N+teANlcuk8gdkaLDX12bNadkSJDrxSY2BkhLvSKYVl3zuaMXojYOUtU6EIiVUzoIidZROirRO5hGs7ijF6AJ+Y4W/vQq6+5wBmhdeiVI7fijNQ29OqRw0jO6ANZcWZpGXq1NRc4s7ULvWLkMFur0CtFbsWpxBn9BAKnmjahV1hzK05VLUKfHbnAqW750CtEDtU5oz/JirOSpUOfteYCZzXLhj4jcivOqpYMfXTkAmd1zuh/EDgdLBf6qDW34nSyVOgjIhc4Hbl0/0DgdLVM6GeuuRWnuyVCPzty6K586GdFbsVJEndGFziJSod+9JoLnFRlQz8ycitOupKhHx05pGt7Rrfi8K5c6HvXXODwVanQj4gc+KpM6Hsit+Lwu+XP6AKHv5UI/Zk1t+LwuOmhb41c4LDd1NCfiRzYbokzuhWHfaaF/uiaCxz2mxL6I5FbcThOuUt3gcPxSoUucDjHlNA/B23F4VyX18CeLuyZB12A5+wZw3JndOB4QocAQocAQocAu27GAWuw6BBA6BBA6BBA6BBA6BBA6BBA6BBA6BBA6BBA6BBA6NDey8u/gyULA6Vi3soAAAAASUVORK5CYII=;imageBorder=default;" parent="1" vertex="1">
                    <mxGeometry x="40" y="140" width="40" height="40" as="geometry"/>
                </mxCell>
                <mxCell id="20" value="" style="shape=image;verticalLabelPosition=bottom;labelBackgroundColor=default;verticalAlign=top;aspect=fixed;imageAspect=0;image=data:image/png,iVBORw0KGgoAAAANSUhEUgAAAPoAAAD6CAIAAAAHjs1qAAAAAXNSR0IArs4c6QAAAARnQU1BAACxjwv8YQUAAAAJcEhZcwAAFiUAABYlAUlSJPAAAAMUSURBVHhe7duxquMwEEDRzP7/P+vBojpYuLFzz2kyjUCCy4CLzFrrAw3/9i8EyJ0QuRMid0LkTojcCZE7IXInRO6EyJ0QuRMid0LkTojcCZE7IXInRO6EnP2baWb2BM9wFLDtTojcCZE7IXInRO6EyJ0QuRMid0LkTojcCZE7IXInRO6EyJ0QuRMid0LkTojcCZE7IXInRO6EyJ0QuRMid0LkTojcCZE7IXInRO6EyJ0QuRMid0LkTojcCZE7IXInRO6EyJ0QuRMid0LkTojcCZE7IXInRO6EyJ0QuRMid0LkTsistfZ4wczs6b+js4/1k4/67tVPvnN5250QuRMid0LkTojcCZE7IXInRO6EyJ0QuRMid0LkTojcCZE7IXInRO6EyJ0QuRMid0LkTojcCZE7IXInRO6EyJ0QuRMid0LkTojcCZE7IXInRO6EyJ0QuRMid0LkTojcCZE7IXInRO6EyJ0QuRMid0LkTojcCZm11h4vmJk9wTMcBWy7EyJ3QuROiNwJufWpenT2sX7yUd+9+sl3Lm+7EyJ3QuROiNwJkTshcidE7oTInRC5EyJ3QuROiNwJkTshcidE7oTInRC5EyJ3QuROiNwJkTshcidE7oTInRC5EyJ3QuROiNwJkTshcidE7oTInRC5EyJ3QuROiNwJkTshcidE7oTInRC5EyJ3QuROiNwJkTshcidE7oTInRC5EyJ3QuROiNwJkTshcidE7oTInRC5EyJ3QuROiNwJmbXWHi+YmT3BMxwFbLsTIndC5E6I3Am59al6dPaxfvJR3736yXcub7sTIndC5E6I3AmROyFyJ0TuhMidELkTIndC5E6I3AmROyFyJ0TuhMidELkTIndC5E6I3AmROyFyJ0TuhMidELkTIndC5E6I3AmROyFyJ0TuhMidELkTIndC5E6I3AmROyFyJ0TuhMidELkTIndC5E6I3AmROyFyJ0TuhMxaa48XzMye4BmOArbdCZE7IXInRO6EnH2qwqvZ7oTInRC5EyJ3QuROiNwJkTshcidE7oTInRC5k/H5/AHoBUzR1hr1BgAAAABJRU5ErkJggg==;imageBorder=default;" parent="1" vertex="1">
                    <mxGeometry x="510" y="140" width="40" height="40" as="geometry"/>
                </mxCell>
                <mxCell id="21" value="[SOH].[SorMaster_Process_Staged]" style="rounded=0;whiteSpace=wrap;html=1;strokeWidth=1;fontSize=12;align=left;fontStyle=0" parent="1" vertex="1">
                    <mxGeometry x="550" y="140" width="260" height="40" as="geometry"/>
                </mxCell>
                <mxCell id="22" value="This table is use to stage Sales Orders to go through processes configured within the Sales Order Handler service." style="rounded=0;whiteSpace=wrap;html=1;strokeWidth=1;fontSize=12;align=left;verticalAlign=top;" parent="1" vertex="1">
                    <mxGeometry x="510" y="180" width="300" height="60" as="geometry"/>
                </mxCell>
            </root>
        </mxGraphModel>
    </diagram>
    <diagram id="CeFVbqsPHAFjBwCRfQzG" name="SOH - cSOH">
        <mxGraphModel dx="1140" dy="823" grid="1" gridSize="10" guides="1" tooltips="1" connect="1" arrows="1" fold="1" page="1" pageScale="1" pageWidth="1100" pageHeight="850" math="0" shadow="0">
            <root>
                <mxCell id="0"/>
                <mxCell id="1" parent="0"/>
                <mxCell id="lYiNSfPNHqcD9I24X0jw-1" value="cSOH - Sales Order Handler class" style="rounded=0;whiteSpace=wrap;html=1;fontSize=36;fontStyle=1" vertex="1" parent="1">
                    <mxGeometry x="10" y="10" width="1080" height="50" as="geometry"/>
                </mxCell>
                <mxCell id="lYiNSfPNHqcD9I24X0jw-2" value="" style="rounded=0;whiteSpace=wrap;html=1;fontSize=36;" vertex="1" parent="1">
                    <mxGeometry x="10" y="60" width="1080" height="780" as="geometry"/>
                </mxCell>
                <mxCell id="lYiNSfPNHqcD9I24X0jw-10" style="edgeStyle=none;html=1;entryX=0.5;entryY=0;entryDx=0;entryDy=0;fontSize=16;" edge="1" parent="1" source="lYiNSfPNHqcD9I24X0jw-7" target="lYiNSfPNHqcD9I24X0jw-8">
                    <mxGeometry relative="1" as="geometry">
                        <Array as="points">
                            <mxPoint x="210" y="90"/>
                        </Array>
                    </mxGeometry>
                </mxCell>
                <mxCell id="lYiNSfPNHqcD9I24X0jw-7" value="cSOH.OnStart()" style="rounded=1;whiteSpace=wrap;html=1;fontSize=16;" vertex="1" parent="1">
                    <mxGeometry x="20" y="70" width="120" height="40" as="geometry"/>
                </mxCell>
                <mxCell id="lYiNSfPNHqcD9I24X0jw-11" value="" style="edgeStyle=none;html=1;fontSize=16;" edge="1" parent="1" source="lYiNSfPNHqcD9I24X0jw-8" target="lYiNSfPNHqcD9I24X0jw-9">
                    <mxGeometry relative="1" as="geometry"/>
                </mxCell>
                <mxCell id="lYiNSfPNHqcD9I24X0jw-8" value="Get Application Settings" style="rounded=0;whiteSpace=wrap;html=1;fontSize=16;" vertex="1" parent="1">
                    <mxGeometry x="150" y="110" width="120" height="40" as="geometry"/>
                </mxCell>
                <mxCell id="lYiNSfPNHqcD9I24X0jw-9" value="Set up and start application timers" style="rounded=0;whiteSpace=wrap;html=1;fontSize=16;" vertex="1" parent="1">
                    <mxGeometry x="150" y="170" width="120" height="60" as="geometry"/>
                </mxCell>
                <mxCell id="lYiNSfPNHqcD9I24X0jw-14" style="edgeStyle=none;html=1;entryX=0.5;entryY=0;entryDx=0;entryDy=0;fontSize=16;" edge="1" parent="1" source="lYiNSfPNHqcD9I24X0jw-12" target="lYiNSfPNHqcD9I24X0jw-13">
                    <mxGeometry relative="1" as="geometry">
                        <Array as="points">
                            <mxPoint x="330" y="280"/>
                        </Array>
                    </mxGeometry>
                </mxCell>
                <mxCell id="lYiNSfPNHqcD9I24X0jw-12" value="cSOH.tmrStaging_Elaspsed()" style="rounded=1;whiteSpace=wrap;html=1;fontSize=16;" vertex="1" parent="1">
                    <mxGeometry x="20" y="260" width="230" height="40" as="geometry"/>
                </mxCell>
                <mxCell id="lYiNSfPNHqcD9I24X0jw-13" value="Execute Staging procedures for application" style="rounded=0;whiteSpace=wrap;html=1;fontSize=16;" vertex="1" parent="1">
                    <mxGeometry x="270" y="300" width="120" height="60" as="geometry"/>
                </mxCell>
                <mxCell id="lYiNSfPNHqcD9I24X0jw-17" style="edgeStyle=none;html=1;entryX=0.5;entryY=0;entryDx=0;entryDy=0;fontSize=16;" edge="1" parent="1" source="lYiNSfPNHqcD9I24X0jw-15" target="lYiNSfPNHqcD9I24X0jw-16">
                    <mxGeometry relative="1" as="geometry">
                        <Array as="points">
                            <mxPoint x="420" y="420"/>
                        </Array>
                    </mxGeometry>
                </mxCell>
                <mxCell id="lYiNSfPNHqcD9I24X0jw-15" value="cSOH.tmrPrimary_Elapsed()" style="rounded=1;whiteSpace=wrap;html=1;fontSize=16;" vertex="1" parent="1">
                    <mxGeometry x="20" y="400" width="230" height="40" as="geometry"/>
                </mxCell>
                <mxCell id="lYiNSfPNHqcD9I24X0jw-19" value="" style="edgeStyle=none;html=1;fontSize=16;" edge="1" parent="1" source="lYiNSfPNHqcD9I24X0jw-16" target="lYiNSfPNHqcD9I24X0jw-18">
                    <mxGeometry relative="1" as="geometry"/>
                </mxCell>
                <mxCell id="lYiNSfPNHqcD9I24X0jw-16" value="cSOH.ProcessStagedOrders() - Start main service loop" style="rounded=0;whiteSpace=wrap;html=1;fontSize=16;" vertex="1" parent="1">
                    <mxGeometry x="270" y="450" width="300" height="60" as="geometry"/>
                </mxCell>
                <mxCell id="lYiNSfPNHqcD9I24X0jw-21" value="" style="edgeStyle=none;html=1;fontSize=16;" edge="1" parent="1" source="lYiNSfPNHqcD9I24X0jw-18" target="lYiNSfPNHqcD9I24X0jw-20">
                    <mxGeometry relative="1" as="geometry"/>
                </mxCell>
                <mxCell id="lYiNSfPNHqcD9I24X0jw-18" value="Reload Settings" style="rounded=0;whiteSpace=wrap;html=1;fontSize=16;" vertex="1" parent="1">
                    <mxGeometry x="350" y="530" width="140" height="40" as="geometry"/>
                </mxCell>
                <mxCell id="lYiNSfPNHqcD9I24X0jw-20" value="Load active processes" style="rounded=0;whiteSpace=wrap;html=1;fontSize=16;" vertex="1" parent="1">
                    <mxGeometry x="350" y="590" width="140" height="50" as="geometry"/>
                </mxCell>
            </root>
        </mxGraphModel>
    </diagram>
</mxfile>